<svg xmlns="http://www.w3.org/2000/svg" xmlns:xlink="http://www.w3.org/1999/xlink" width="500" zoomAndPan="magnify" viewBox="0 0 375 374.999991" height="500" preserveAspectRatio="xMidYMid meet" version="1.0"><defs><g/><clipPath id="id1"><path d="M 187 104.964844 L 262.5 104.964844 L 262.5 207.714844 L 187 207.714844 Z M 187 104.964844 " clip-rule="nonzero"/></clipPath><clipPath id="id2"><path d="M 203 167 L 231 167 L 231 207.714844 L 203 207.714844 Z M 203 167 " clip-rule="nonzero"/></clipPath><clipPath id="id3"><path d="M 112.5 104.964844 L 188 104.964844 L 188 207.714844 L 112.5 207.714844 Z M 112.5 104.964844 " clip-rule="nonzero"/></clipPath><clipPath id="id4"><path d="M 171 152 L 204 152 L 204 207.714844 L 171 207.714844 Z M 171 152 " clip-rule="nonzero"/></clipPath><clipPath id="id5"><path d="M 191 183 L 216 183 L 216 207.714844 L 191 207.714844 Z M 191 183 " clip-rule="nonzero"/></clipPath><clipPath id="id6"><path d="M 144 167 L 172 167 L 172 207.714844 L 144 207.714844 Z M 144 167 " clip-rule="nonzero"/></clipPath><clipPath id="id7"><path d="M 159 183 L 184 183 L 184 207.714844 L 159 207.714844 Z M 159 183 " clip-rule="nonzero"/></clipPath></defs><g clip-path="url(#id1)"><path fill="#8c11be" d="M 211.03125 167.941406 L 230.921875 207.714844 L 262.40625 207.714844 L 211.03125 104.964844 L 187.5 152.03125 L 203.242188 183.519531 Z M 211.03125 167.941406 " fill-opacity="1" fill-rule="nonzero"/></g><g clip-path="url(#id2)"><path fill="#ffffff" d="M 203.242188 183.519531 L 215.34375 207.714844 L 230.921875 207.714844 L 211.03125 167.941406 Z M 203.242188 183.519531 " fill-opacity="1" fill-rule="nonzero"/></g><g clip-path="url(#id3)"><path fill="#8c11be" d="M 163.96875 167.941406 L 171.757812 183.519531 L 187.5 152.03125 L 163.96875 104.964844 L 112.59375 207.714844 L 144.078125 207.714844 Z M 163.96875 167.941406 " fill-opacity="1" fill-rule="nonzero"/></g><g clip-path="url(#id4)"><path fill="#d778ff" d="M 183.855469 207.714844 L 191.144531 207.714844 L 203.242188 183.519531 L 187.5 152.03125 L 171.757812 183.519531 Z M 183.855469 207.714844 " fill-opacity="1" fill-rule="nonzero"/></g><g clip-path="url(#id5)"><path fill="#8c11be" d="M 191.144531 207.714844 L 215.34375 207.714844 L 203.242188 183.519531 Z M 191.144531 207.714844 " fill-opacity="1" fill-rule="nonzero"/></g><g clip-path="url(#id6)"><path fill="#ffffff" d="M 163.96875 167.941406 L 144.078125 207.714844 L 159.65625 207.714844 L 171.757812 183.519531 Z M 163.96875 167.941406 " fill-opacity="1" fill-rule="nonzero"/></g><g clip-path="url(#id7)"><path fill="#8c11be" d="M 159.65625 207.714844 L 183.855469 207.714844 L 171.757812 183.519531 Z M 159.65625 207.714844 " fill-opacity="1" fill-rule="nonzero"/></g><g fill="#9d4fbd" fill-opacity="1"><g transform="translate(77.904686, 252.833069)"><g><path d="M 2.59375 -26.3125 L 2.59375 -27.515625 L 9.953125 -27.515625 L 21.484375 -3.046875 L 20.15625 0 L 14.953125 0 Z M 25.203125 -11.5625 L 25.046875 -11.5625 L 22.359375 -5.078125 L 18.921875 -12.4375 L 25.203125 -27.515625 L 32.796875 -27.515625 L 32.796875 0 L 25.203125 0 Z M 2.59375 -22.359375 L 9.953125 -6.6875 L 9.953125 0 L 2.59375 0 Z M 2.59375 -22.359375 "/></g></g></g><g fill="#9d4fbd" fill-opacity="1"><g transform="translate(113.301168, 252.833069)"><g><path d="M 8.640625 -9.078125 L 8.28125 -9.875 L 7.234375 -11.921875 L 6.234375 -14.046875 C 6.128906 -14.222656 6 -14.5 5.84375 -14.875 L 4.203125 -18.28125 L -0.203125 -27.515625 L 7.953125 -27.515625 L 16.640625 -9.046875 L 16.640625 0 L 8.640625 0 Z M 13.796875 -19 L 17.515625 -27.515625 L 25.515625 -27.515625 L 22.40625 -21.046875 L 21.078125 -18.3125 L 18.5625 -13.078125 L 17.5625 -11 Z M 13.796875 -19 "/></g></g></g><g fill="#9d4fbd" fill-opacity="1"><g transform="translate(138.618656, 252.833069)"><g><path d="M 6.640625 -1.15625 C 6.453125 -1.90625 6.210938 -2.945312 5.921875 -4.28125 L 4.84375 -8.6875 L 3.640625 -13.71875 L 0.40625 -27.515625 L 8.359375 -27.515625 L 14.046875 0 L 6.921875 0 Z M 12.921875 -13.765625 L 15.921875 -27.515625 L 24.125 -27.515625 L 30.6875 0 L 23.84375 0 L 23.515625 -1.3125 L 22.6875 -4.796875 L 21.484375 -9.875 C 20.972656 -11.925781 20.492188 -13.941406 20.046875 -15.921875 L 19.796875 -15.921875 L 18.4375 -9.875 L 18 -7.84375 C 17.863281 -7.28125 17.734375 -6.742188 17.609375 -6.234375 C 17.492188 -5.734375 17.382812 -5.253906 17.28125 -4.796875 L 16.484375 -1.3125 L 16.15625 0 L 15.71875 0 Z M 29.078125 -14 L 31.484375 -27.515625 L 39.4375 -27.515625 L 36.15625 -13.71875 L 34.953125 -8.6875 C 34.453125 -6.625 34.109375 -5.15625 33.921875 -4.28125 L 33.15625 -1.15625 L 32.875 0 L 32.40625 0 Z M 29.078125 -14 "/></g></g></g><g fill="#9d4fbd" fill-opacity="1"><g transform="translate(178.454702, 252.833069)"><g><path d="M 8.84375 -27.515625 L 9.515625 -27.515625 L 12.6875 -16.5625 L 8.078125 0 L 0.078125 0 Z M 17.84375 -4.875 L 11.15625 -4.875 L 12.84375 -11.046875 L 16.046875 -11.046875 L 11.3125 -27.515625 L 18.640625 -27.515625 L 27.40625 0 L 19.234375 0 Z M 17.84375 -4.875 "/></g></g></g><g fill="#9d4fbd" fill-opacity="1"><g transform="translate(205.931976, 252.833069)"><g><path d="M 2.59375 -27.515625 L 10.59375 -27.515625 L 10.59375 0 L 2.59375 0 Z M 12.28125 -6.4375 L 20.84375 -6.4375 L 20.84375 0 L 12.28125 0 Z M 12.28125 -6.4375 "/></g></g></g><g fill="#9d4fbd" fill-opacity="1"><g transform="translate(227.569823, 252.833069)"><g><path d="M 2.59375 -27.515625 L 10.59375 -27.515625 L 10.59375 0 L 2.59375 0 Z M 12.28125 -6.4375 L 20.84375 -6.4375 L 20.84375 0 L 12.28125 0 Z M 12.28125 -6.4375 "/></g></g></g><g fill="#9d4fbd" fill-opacity="1"><g transform="translate(249.207669, 252.833069)"><g><path d="M 2.59375 -27.515625 L 10.59375 -27.515625 L 10.59375 0 L 2.59375 0 Z M 12.28125 -27.515625 L 22.4375 -27.515625 L 22.4375 -21.40625 L 12.28125 -21.40625 Z M 12.28125 -16.953125 L 20.5625 -16.953125 L 20.5625 -10.84375 L 12.28125 -10.84375 Z M 12.28125 -6.125 L 22.4375 -6.125 L 22.4375 0 L 12.28125 0 Z M 12.28125 -6.125 "/></g></g></g><g fill="#9d4fbd" fill-opacity="1"><g transform="translate(273.845218, 252.833069)"><g><path d="M 0.359375 -27.515625 L 22.875 -27.515625 L 22.875 -21.125 L 0.359375 -21.125 Z M 7.59375 -19.515625 L 15.59375 -19.515625 L 15.59375 0 L 7.59375 0 Z M 7.59375 -19.515625 "/></g></g></g></svg>